<svg width="33" height="33" viewBox="0 0 33 33" fill="none" xmlns="http://www.w3.org/2000/svg">
<circle cx="16.5" cy="16.5" r="16.5" fill="#BEE6FF"/>
<path d="M18.1311 7.61523H9.03952C8.28752 7.61523 7.67578 8.26896 7.67578 9.07255V20.7959C7.67578 21.4284 8.05696 21.9626 8.58494 22.1638V12.3895C8.58494 11.741 8.82156 11.1309 9.25084 10.6722L10.5365 9.29837C10.9657 8.83964 11.5366 8.58678 12.1434 8.58678H19.4111C19.2228 8.02257 18.723 7.61523 18.1311 7.61523Z" fill="#2C87BF"/>
<path d="M19.9485 9.56494C15.9321 9.56494 17.101 9.56494 13.1298 9.56494V12.9589C13.1298 13.2273 12.9265 13.4511 12.6752 13.4511H9.49316V22.7391C9.49316 23.5429 10.1047 24.1965 10.8569 24.1965H19.9485C20.7004 24.1965 21.3062 23.5429 21.3062 22.7391V11.0158C21.3062 10.2123 20.7004 9.56494 19.9485 9.56494ZM19.0393 21.2818H11.7661C11.5148 21.2818 11.3115 21.0645 11.3115 20.7961C11.3115 20.5276 11.5148 20.3103 11.7661 20.3103H19.0393C19.2906 20.3103 19.4939 20.5276 19.4939 20.7961C19.4939 21.0645 19.2906 21.2818 19.0393 21.2818ZM19.0393 19.3387H11.7661C11.5148 19.3387 11.3115 19.1214 11.3115 18.853C11.3115 18.5845 11.5148 18.3672 11.7661 18.3672H19.0393C19.2906 18.3672 19.4939 18.5845 19.4939 18.853C19.4939 19.1214 19.2906 19.3387 19.0393 19.3387ZM19.0393 17.3956H11.7661C11.5148 17.3956 11.3115 17.1783 11.3115 16.9099C11.3115 16.6414 11.5148 16.4241 11.7661 16.4241H19.0393C19.2906 16.4241 19.4939 16.6414 19.4939 16.9099C19.4939 17.1783 19.2906 17.3956 19.0393 17.3956ZM19.0393 15.4525H11.7661C11.5148 15.4525 11.3115 15.2352 11.3115 14.9668C11.3115 14.6983 11.5148 14.481 11.7661 14.481H19.0393C19.2906 14.481 19.4939 14.6983 19.4939 14.9668C19.4939 15.2352 19.2906 15.4525 19.0393 15.4525Z" fill="#2C87BF"/>
<path d="M12.1425 9.55811C11.7785 9.55811 11.4358 9.70993 11.1783 9.98507L9.89271 11.3589C9.58963 11.6827 9.49316 12.0449 9.49316 12.4727H12.2206V9.55811H12.1425Z" fill="#2C87BF"/>
</svg>
