<svg width="33" height="33" viewBox="0 0 33 33" fill="none" xmlns="http://www.w3.org/2000/svg">
<circle cx="16.5" cy="16.5" r="16.5" fill="#FEEBBA"/>
<path d="M22.6742 8.88477V20.8521C22.3878 21.3434 22.0585 21.8052 21.691 22.232C21.4687 22.4907 21.2327 22.7362 20.984 22.9679C20.7366 23.1988 20.4761 23.4157 20.2046 23.6171H11.0576V8.88477H22.6742Z" fill="#FFB800"/>
<path d="M21.691 9.89209V22.2318C21.4687 22.4906 21.2327 22.736 20.984 22.9677C20.7366 23.1986 20.4761 23.4155 20.2046 23.617H11.0576V9.89209H21.691Z" fill="white"/>
<path d="M20.9838 10.6162V22.9677C20.7363 23.1986 20.4758 23.4154 20.2044 23.6169C20.1371 23.6673 20.069 23.7164 20.0006 23.7644C19.7724 23.9248 19.5363 24.0743 19.2936 24.213C18.2097 24.8324 16.9889 25.2305 15.6893 25.3483H14.0731C12.3117 25.1887 10.6946 24.5136 9.36719 23.4715V10.6162H20.9838Z" fill="#FFB800"/>
<path d="M20.0006 11.6235V23.7646C19.7724 23.925 19.5363 24.0745 19.2936 24.2132C18.2097 24.8326 16.9889 25.2307 15.6893 25.3484H14.0731C12.3117 25.1889 10.6946 24.5138 9.36719 23.4717V11.6235H20.0006Z" fill="white"/>
<path d="M19.2934 12.3477V24.2134C18.2095 24.8329 16.9886 25.231 15.6891 25.3487C15.4227 25.3725 15.1533 25.385 14.881 25.385C14.6087 25.385 14.3392 25.3725 14.0729 25.3487C12.3114 25.1891 10.6944 24.5141 9.36696 23.4719C8.73236 22.9734 8.16342 22.3907 7.67676 21.7402V12.3477H19.2934V12.3477Z" fill="#FFB800"/>
<path d="M14.2254 13.8877H9.18945V14.5862H14.2254V13.8877Z" fill="white"/>
<path d="M17.714 16.2251H9.18945V16.9236H17.714V16.2251Z" fill="white"/>
<path d="M17.714 17.7563H9.18945V18.4549H17.714V17.7563Z" fill="white"/>
<path d="M17.714 19.2876H9.18945V19.9861H17.714V19.2876Z" fill="white"/>
<path d="M17.714 20.8188H9.18945V21.5174H17.714V20.8188Z" fill="white"/>
<path d="M17.9681 23.1869C17.686 23.2747 17.4143 23.4194 17.1211 23.4662C17.0643 23.4752 17.0007 23.4844 16.9434 23.4737C16.8578 23.4576 16.8678 23.4684 16.8847 23.4267C16.8995 23.3902 16.9678 23.3537 16.9897 23.3143C17.017 23.2653 17.0259 23.2151 17.0262 23.1595C17.0269 23.0537 16.9104 22.9382 16.8021 22.9846C16.5556 23.0902 16.321 23.2299 16.0676 23.3177C15.9617 23.3545 15.5593 23.4468 15.8108 23.2523C15.9892 23.1142 15.8182 22.8008 15.6321 22.9391C15.3936 23.1163 15.153 23.2939 14.8608 23.352C14.8799 23.3205 14.9001 23.2837 14.9087 23.2727C14.9722 23.1912 15.0482 23.1172 15.1002 23.0268C15.2158 22.8251 14.9099 22.6424 14.7944 22.8438C14.6696 23.0614 14.2346 23.4287 14.6112 23.6552C14.8546 23.8014 15.15 23.6906 15.4094 23.5337C15.4412 23.6017 15.5009 23.6609 15.5969 23.7025C15.8794 23.8246 16.2124 23.6808 16.5113 23.5276C16.5512 23.6882 16.6944 23.7885 16.8493 23.8234C17.2582 23.9155 17.6839 23.6544 18.0623 23.5367C18.2797 23.469 18.187 23.1188 17.9681 23.1869Z" fill="#42577F"/>
<path d="M21.7806 11.839L22.1018 10.6842C22.1363 10.5601 22.0661 10.431 21.945 10.3956L21.6225 10.3015C21.5013 10.2661 21.3753 10.338 21.3407 10.4621L21.0195 11.6169L21.7806 11.839Z" fill="#5C667A"/>
<path d="M21.3194 11.7044L21.7031 10.325L21.6225 10.3015C21.5013 10.2661 21.3753 10.338 21.3407 10.4621L21.0195 11.6169L21.3194 11.7044Z" fill="#5C667A"/>
<path d="M21.1258 16.9897C21.0627 16.9713 21.0174 16.9107 21.0196 16.8404C21.0437 16.084 21.1947 15.3441 21.4684 14.6414L22.1803 12.8133C22.2349 12.6729 22.2292 12.5208 22.1641 12.3851C22.0991 12.2494 21.985 12.1519 21.843 12.1105C21.7652 12.0877 21.7201 12.0047 21.7422 11.925C21.7644 11.8452 21.8455 11.799 21.9233 11.8217C22.1428 11.8858 22.3265 12.0428 22.4272 12.2527C22.5279 12.4625 22.5371 12.7074 22.4525 12.9245L21.7406 14.7527C21.4796 15.423 21.3355 16.1287 21.3126 16.8502C21.31 16.9331 21.2422 16.9981 21.1613 16.9954C21.149 16.995 21.1371 16.993 21.1258 16.9897Z" fill="#5C667A"/>
<path d="M22.1065 11.7151L19.8754 19.7366C19.7527 19.7351 19.6222 19.7295 19.4853 19.7192C19.3059 19.7065 19.1151 19.6867 18.9148 19.6597C18.7843 19.6426 18.6497 19.6224 18.5117 19.5992L20.8099 11.3366C20.8444 11.2125 20.9705 11.1407 21.0916 11.176L21.9497 11.4264C22.0708 11.4619 22.141 11.5911 22.1065 11.7151Z" fill="#2C3A5B"/>
<path d="M21.2607 11.2254L18.9148 19.6597C18.7843 19.6426 18.6497 19.6224 18.5117 19.5992L20.8099 11.3366C20.8444 11.2125 20.9705 11.1407 21.0916 11.176L21.2607 11.2254Z" fill="#5C667A"/>
<path d="M18.8504 20.8974C18.9283 20.9201 18.9734 21.0032 18.9513 21.0829L18.6479 22.1735C18.6257 22.2533 18.5447 22.2995 18.4668 22.2768C18.3889 22.2541 18.3438 22.171 18.366 22.0913L18.6693 21.0007C18.6915 20.9209 18.7726 20.8747 18.8504 20.8974Z" fill="#5C667A"/>
<path d="M19.6237 20.6334L21.289 14.6461C20.9697 14.5657 20.6598 14.4974 20.3642 14.4414C20.2273 14.4155 20.0935 14.3924 19.9634 14.3716L18.327 20.255C18.1903 20.7467 18.2422 21.2708 18.4678 21.7211C18.4985 21.7828 18.5326 21.8431 18.5699 21.9017L18.6234 21.8749C18.6329 21.8702 18.6423 21.8651 18.6517 21.8598C18.6652 21.8528 18.6785 21.8454 18.6916 21.8377L18.6997 21.8329C18.7166 21.8238 18.7331 21.8136 18.7496 21.8034C19.1731 21.5424 19.487 21.1251 19.6237 20.6334Z" fill="#2C3A5B"/>
<path d="M18.8201 21.7572C18.8079 21.7299 18.7963 21.7028 18.7854 21.6749C18.7097 21.4836 18.6628 21.282 18.6469 21.0773C18.6287 20.8413 18.651 20.6012 18.7158 20.3684L20.3643 14.4414C20.2273 14.4155 20.0936 14.3924 19.9634 14.3716L18.327 20.255C18.1903 20.7467 18.2422 21.2707 18.4678 21.7211C18.4985 21.7828 18.5326 21.8431 18.5699 21.9017L18.6234 21.8749C18.6329 21.8702 18.6423 21.8651 18.6517 21.8598C18.6652 21.8528 18.6785 21.8454 18.6916 21.8377L18.6997 21.8329C18.7167 21.8232 18.7335 21.8131 18.7499 21.8026C18.7738 21.788 18.7972 21.773 18.8201 21.7572Z" fill="#5C667A"/>
<path d="M18.3967 20.0073L19.6934 20.3857L19.7737 20.097L18.4771 19.7186L18.3967 20.0073Z" fill="#5C667A"/>
<path d="M18.5276 19.5386L19.8242 19.917L19.9045 19.6282L18.6079 19.2498L18.5276 19.5386Z" fill="#5C667A"/>
<path d="M18.6575 19.0693L19.9541 19.4478L20.0344 19.159L18.7378 18.7806L18.6575 19.0693Z" fill="#5C667A"/>
<path d="M18.7874 18.6001L20.084 18.9785L20.1643 18.6898L18.8677 18.3114L18.7874 18.6001Z" fill="#5C667A"/>
<path d="M18.9192 18.1304L20.2158 18.5088L20.2961 18.22L18.9995 17.8416L18.9192 18.1304Z" fill="#5C667A"/>
</svg>
